<svg width="894" height="321" viewBox="0 0 894 321" fill="none" xmlns="http://www.w3.org/2000/svg">
<path d="M721.483 6.5293C725.687 -0.270703 728.993 -1.32404 735.804 2.00796C730.885 3.5613 726.411 4.9733 721.483 6.5293Z" fill="#1E1AFF"/>
<path d="M99.943 114.685C96.1377 87.8516 76.639 71.933 66.087 68.1903C92.359 94.765 86.027 134.704 83.5977 168.616C131.502 138.066 183.714 189.984 160.772 235.712C149.167 259.953 119.894 271.293 94.5924 261.797C104.452 281.885 123.076 292.59 140.079 305.51C141.416 306.525 142.594 306.677 144.02 306.056C149.604 303.624 155.399 301.581 160.738 298.701C255.658 246.068 207.578 100.824 99.943 114.685Z" fill="#1E1AFF"/>
<path d="M0.930664 67.6115C56.9307 114.709 -50.2 309.121 112.984 310.689C-3.30266 233.054 138.108 66.1449 0.930664 67.6115Z" fill="#1E1AFF"/>
<path d="M275.681 269.075C273.245 280.535 261.363 283.095 251.123 283.095C243.565 283.095 240.407 280.169 241.393 275.537C242.299 271.27 245.37 269.441 251.082 268.954C262.138 267.979 270.95 267.247 276.303 266.15L275.681 269.075ZM271.675 227.139C255.583 227.139 244.23 228.359 236.069 231.771C227.758 235.307 222.787 240.915 219.014 250.058H249.491C252.327 243.598 259.51 242.499 266.458 242.499C275.114 242.499 280.159 244.573 279.226 248.961C278.449 252.618 276.065 254.081 269.893 254.446L243.91 255.666C221.15 256.642 210.835 264.443 208.243 276.634C204.615 293.702 216.371 299.187 236.851 299.187C253.065 299.187 264.049 296.262 272.223 289.922C271.827 292.361 271.726 294.554 271.922 296.505H303.13C302.133 294.311 301.441 291.263 302.529 286.143L309.373 253.959C313.597 234.089 302.762 227.139 271.675 227.139Z" fill="#1E1AFF"/>
<path d="M357.916 275.049L399.519 247.376L403.251 229.821H326.815L322.462 250.301H357.936L357.884 250.545L314.02 279.683L310.443 296.505H390.171L394.68 275.293H357.864L357.916 275.049Z" fill="#1E1AFF"/>
<path d="M467.561 269.075C465.125 280.535 453.244 283.095 443.004 283.095C435.445 283.095 432.288 280.169 433.273 275.537C434.18 271.27 437.25 269.441 442.962 268.954C454.018 267.979 462.83 267.247 468.184 266.15L467.561 269.075ZM463.556 227.139C447.464 227.139 436.11 228.359 427.949 231.771C419.638 235.307 414.668 240.915 410.894 250.058H441.372C444.208 243.598 451.39 242.499 458.338 242.499C466.994 242.499 472.04 244.573 471.106 248.961C470.329 252.618 467.945 254.081 461.773 254.446L435.79 255.666C413.03 256.642 402.716 264.443 400.124 276.634C396.496 293.702 408.252 299.187 428.732 299.187C444.945 299.187 455.929 296.262 464.104 289.922C463.708 292.361 463.606 294.554 463.802 296.505H495.01C494.013 294.311 493.321 291.263 494.409 286.143L501.253 253.959C505.477 234.089 494.642 227.139 463.556 227.139Z" fill="#1E1AFF"/>
<path d="M589.148 228.724C585.96 228.237 582.599 227.993 579.307 227.993C568.823 227.993 557.919 232.26 547.792 242.622H547.548L550.269 229.821H520.768L506.591 296.505H537.067L542.38 271.514C545.439 257.129 557.772 253.593 568.621 253.593C573.985 253.593 578.263 254.692 583.343 256.03L589.148 228.724Z" fill="#1E1AFF"/>
<path d="M654.268 263.59C652.455 272.123 645.447 278.707 634.475 278.707C622.649 278.707 618.869 272.976 620.865 263.59C622.887 254.08 629.077 248.474 640.781 248.474C652.605 248.474 656.135 254.812 654.268 263.59ZM655.132 227.994C641.6 227.994 632.463 231.406 625.629 237.746H625.385L627.071 229.822H597.568L578.311 320.398H608.787L615.293 289.8H615.537C619.431 296.139 627.56 299.187 639.995 299.187C659.744 299.187 680.215 288.338 685.476 263.59C690.739 238.842 674.88 227.994 655.132 227.994Z" fill="#1E1AFF"/>
<path d="M756.478 269.075C754.042 280.535 742.161 283.095 731.921 283.095C724.362 283.095 721.205 280.169 722.19 275.537C723.097 271.27 726.167 269.441 731.879 268.954C742.935 267.979 751.747 267.247 757.101 266.15L756.478 269.075ZM790.17 253.959C794.394 234.089 783.559 227.139 752.473 227.139C736.381 227.139 725.027 228.359 716.866 231.771C708.555 235.307 703.585 240.915 699.811 250.058H730.289C733.125 243.598 740.307 242.499 747.255 242.499C755.911 242.499 760.957 244.573 760.023 248.961C759.246 252.618 756.863 254.081 750.69 254.446L724.707 255.666C701.947 256.642 691.633 264.443 689.041 276.634C685.413 293.702 697.169 299.187 717.649 299.187C733.862 299.187 744.846 296.262 753.021 289.922C752.625 292.361 752.525 294.554 752.719 296.505H783.927C782.93 294.311 782.238 291.263 783.326 286.143L790.17 253.959Z" fill="#1E1AFF"/>
<path d="M861.13 229.821L839.095 264.077L831.629 229.821H799.689L817.615 291.14L815.131 294.797C811.657 299.675 809.045 299.919 802.706 299.919C799.17 299.919 797.611 299.796 795.225 299.553L791.026 319.301C796.53 319.789 804.69 320.399 811.517 320.399C827.853 320.399 832.383 316.863 839.159 307.355L893.07 229.821H861.13Z" fill="#1E1AFF"/>
</svg>
